#!OML:ASF E:\motion texture\Top Level 1\Subject 1\Session 1\male.ASF
:FULLY-SPECIFIED
:DEGREES
97
root 13.7858 17.8768 6.21038 159.987 -87.4831 -156
lowerback 0.200001 -0.0420762 0.0649256
upperback -1.70125 -0.0487307 1.74057
thorax -1.85374 -0.019779 1.7494
lowerneck -10.594 -4.65508 -5.8079
upperneck 12.0049 -6.29531 6.19541
head 5.74644 -2.92067 2.37405
rclavicle 4.69629e-015 -2.18663e-014
rhumerus -22.8163 3.67874 -78.8461
rradius 52.1654
rwrist 6.13494
rhand -16.9081 -25.8953
rfingers 7.12502
rthumb 9.32403 -55.6691
lclavicle 4.69629e-015 -2.18663e-014
lhumerus -16.5174 7.43441 85.3157
lradius 24.2925
lwrist -27.251
lhand -15.0314 23.2412
lfingers 7.12502
lthumb 11.1345 52.9257
rfemur -30.0847 -8.89528 19.9154
rtibia 61.1036
rfoot -5.18083 -18.5536
rtoes 6.4846
lfemur -7.7164 -4.04379 -20.462
ltibia 17.5417
lfoot -10.0848 0.147954
ltoes 1.02697
98
root 13.6577 17.8729 6.20899 161.896 -87.6226 -157.903
lowerback 0.235441 -0.147112 -0.082136
upperback -1.72129 -0.189646 1.77895
thorax -1.88953 -0.0874551 1.87421
lowerneck -10.6022 -4.62545 -5.81596
upperneck 12.0464 -6.25111 6.16285
head 5.75723 -2.90151 2.36874
rclavicle -3.07806e-015 1.66979e-014
rhumerus -22.6537 3.94162 -78.8707
rradius 52.6424
rwrist 6.0476
rhand -17.0239 -25.7842
rfingers 7.12502
rthumb 9.21226 -55.563
lclavicle -3.07806e-015 1.66979e-014
lhumerus -15.6578 6.0881 85.7017
lradius 25.1988
lwrist -26.1646
lhand -15.1617 23.3052
lfingers 7.12502
lthumb 11.0088 52.9965
rfemur -30.7482 -8.99956 19.8152
rtibia 59.7445
rfoot -5.83541 -18.9179
rtoes 6.26933
lfemur -7.14324 -4.09183 -20.6891
ltibia 17.3628
lfoot -10.4114 0.159682
ltoes 0.880278
99
root 13.5297 17.8679 6.20716 164.106 -87.755 -160.097
lowerback 0.264184 -0.24498 -0.226646
upperback -1.74207 -0.3212 1.81273
thorax -1.92181 -0.150457 1.99287
lowerneck -10.5892 -4.59905 -5.82491
upperneck 12.0613 -6.21169 6.13742
head 5.75666 -2.88476 2.36592
rclavicle -1.1368e-015 -1.15295e-014
rhumerus -22.5084 4.1781 -78.8971
rradius 53.0736
rwrist 5.99647
rhand -17.1359 -25.7098
rfingers 7.12502
rthumb 9.1042 -55.4933
lclavicle -1.1368e-015 -1.15295e-014
lhumerus -14.8395 4.79476 86.0229
lradius 26.1249
lwrist -25.1574
lhand -15.2553 23.4211
lfingers 7.12502
lthumb 10.9185 53.1172
rfemur -31.3631 -9.08532 19.7059
rtibia 58.2642
rfoot -6.3903 -19.2891
rtoes 6.14134
lfemur -6.59366 -4.15051 -20.9164
ltibia 17.2077
lfoot -10.7465 0.188097
ltoes 0.719862
100
root 13.402 17.8618 6.20476 166.549 -87.8775 -162.507
lowerback 0.269924 -0.337087 -0.363227
upperback -1.75695 -0.445334 1.84204
thorax -1.93469 -0.209983 2.10226
lowerneck -10.5614 -4.57403 -5.8345
upperneck 12.041 -6.17441 6.12411
head 5.74311 -2.86862 2.36727
rclavicle -6.63444e-015 8.74653e-015
rhumerus -22.3681 4.38506 -78.9297
rradius 53.4537
rwrist 5.97508
rhand -17.2605 -25.6584
rfingers 7.12502
rthumb 8.98399 -55.4471
lclavicle -6.63444e-015 8.74653e-015
lhumerus -14.0434 3.59281 86.2784
lradius 27.0456
lwrist -24.2831
lhand -15.3926 23.4387
lfingers 7.12502
lthumb 10.786 53.1418
rfemur -31.9355 -9.14645 19.5927
rtibia 56.666
rfoot -6.84833 -19.645
rtoes 6.08728
lfemur -6.07476 -4.20831 -21.1356
ltibia 17.0719
lfoot -11.0845 0.221986
ltoes 0.534793
101
root 13.2743 17.8546 6.20178 169.227 -87.9843 -165.136
lowerback 0.253888 -0.419238 -0.490495
upperback -1.76818 -0.556315 1.86564
thorax -1.93157 -0.263227 2.2001
lowerneck -10.5159 -4.55042 -5.83923
upperneck 11.9876 -6.13999 6.11918
head 5.71649 -2.8535 2.37068
rclavicle 5.59082e-015 -3.97569e-016
rhumerus -22.2398 4.55422 -78.9685
rradius 53.7802
rwrist 5.97806
rhand -17.4022 -25.6223
rfingers 7.12502
rthumb 8.84728 -55.4169
lclavicle 5.59082e-015 -3.97569e-016
lhumerus -13.2688 2.45667 86.4788
lradius 27.9566
lwrist -23.5167
lhand -15.5747 23.412
lfingers 7.12502
lthumb 10.6105 53.1242
rfemur -32.4601 -9.17232 19.475
rtibia 54.9485
rfoot -7.20174 -19.9626
rtoes 6.07836
lfemur -5.58428 -4.2623 -21.3447
ltibia 16.9543
lfoot -11.4247 0.260833
ltoes 0.318526
102
root 13.1461 17.8463 6.19799 172.167 -88.0871 -168.012
lowerback 0.228012 -0.492312 -0.614942
upperback -1.78372 -0.655216 1.88272
thorax -1.92742 -0.310514 2.28931
lowerneck -10.4312 -4.52878 -5.83629
upperneck 11.8877 -6.11001 6.12215
head 5.669 -2.8406 2.37586
rclavicle 1.33745e-014 -2.22639e-014
rhumerus -22.1429 4.67993 -79.0121
rradius 54.0553
rwrist 5.99271
rhand -17.5189 -25.684
rfingers 7.12502
rthumb 8.73467 -55.4833
lclavicle 1.33745e-014 -2.22639e-014
lhumerus -12.5266 1.36393 86.6353
lradius 28.8701
lwrist -22.7847
lhand -15.8171 23.3101
lfingers 7.12502
lthumb 10.3766 53.034
rfemur -32.9255 -9.17238 19.3468
rtibia 53.1049
rfoot -7.45614 -20.2348
rtoes 6.16421
lfemur -5.11656 -4.31476 -21.5472
ltibia 16.8493
lfoot -11.7657 0.297602
ltoes 0.0545044
103
root 13.0179 17.8371 6.1935 175.27 -88.1723 -171.036
lowerback 0.194336 -0.553779 -0.731224
upperback -1.80458 -0.738561 1.89552
thorax -1.92475 -0.350165 2.36915
lowerneck -10.3324 -4.51218 -5.82655
upperneck 11.7705 -6.08834 6.12918
head 5.61417 -2.83151 2.38081
rclavicle 4.72735e-015 -9.93923e-015
rhumerus -22.071 4.76609 -79.0602
rradius 54.2723
rwrist 6.01787
rhand -17.6214 -25.6833
rfingers 7.12502
rthumb 8.63575 -55.4866
lclavicle 4.72735e-015 -9.93923e-015
lhumerus -11.8169 0.328885 86.7546
lradius 29.7815
lwrist -22.0804
lhand -16.106 23.1775
lfingers 7.12502
lthumb 10.0978 52.9152
rfemur -33.3422 -9.12971 19.2134
rtibia 51.1437
rfoot -7.61156 -20.4434
rtoes 6.35298
lfemur -4.67523 -4.36155 -21.7356
ltibia 16.7598
lfoot -12.107 0.335315
ltoes -0.226504
